<svg id="f7c95148-5420-4409-8d41-df2e14f3760a" data-name="Calque 1" xmlns="http://www.w3.org/2000/svg" viewBox="0 0 32.4 29"><defs><style>.b5ffe0fe-9e59-46b3-aa2e-d366d302cef4{opacity:0.5;}.b96cf147-ee82-475a-888c-fad2f95737dc{fill:#f1f9fe;}.b998d87a-774b-4ff9-9ce3-aa80c44225c6{fill:#0b4476;}</style></defs><g class="b5ffe0fe-9e59-46b3-aa2e-d366d302cef4"><rect class="b96cf147-ee82-475a-888c-fad2f95737dc" x="-0.02" width="32.43" height="29" rx="1"/><path class="b998d87a-774b-4ff9-9ce3-aa80c44225c6" d="M16.17,7.81c-5.33,0-10.1,2.71-11.92,6.69,1.83,4,6.61,6.69,12,6.69h0c5.33,0,10.1-2.71,11.92-6.69C26.32,10.51,21.53,7.8,16.17,7.81ZM21,14.5A4.77,4.77,0,1,1,16.2,9.73,4.78,4.78,0,0,1,21,14.5ZM16.2,11.4a3.1,3.1,0,1,0,3.1,3.1A3.09,3.09,0,0,0,16.2,11.4Z"/></g></svg>