<svg id="f86410b1-10b1-4434-ad18-f7962a4085c3" data-name="Calque 1" xmlns="http://www.w3.org/2000/svg" viewBox="0 0 32.4 29"><defs><style>.f974be5a-e4cb-45ff-9a5e-7b98f05cfd5f{fill:#f1f9fe;}.f6443326-3283-43ea-b0cc-b183338f8671{fill:#0b4476;}</style></defs><rect class="f974be5a-e4cb-45ff-9a5e-7b98f05cfd5f" x="-0.02" width="32.43" height="29" rx="1"/><path class="f6443326-3283-43ea-b0cc-b183338f8671" d="M16.17,7.81c-5.33,0-10.1,2.71-11.92,6.69,1.83,4,6.61,6.69,12,6.69h0c5.33,0,10.1-2.71,11.92-6.69C26.32,10.51,21.53,7.8,16.17,7.81ZM21,14.5A4.77,4.77,0,1,1,16.2,9.73,4.78,4.78,0,0,1,21,14.5ZM16.2,11.4a3.1,3.1,0,1,0,3.1,3.1A3.09,3.09,0,0,0,16.2,11.4Z"/></svg>