<svg id="ab3c17eb-812b-4d77-b96e-de4fc002cbd0" data-name="Calque 1" xmlns="http://www.w3.org/2000/svg" viewBox="0 0 238.36 252.77"><defs><style>.bfe2b940-e283-449c-831d-d8e3a690e851,.e6a7e50a-c8e7-4596-95c9-eb5004dcd2f2{fill:none;stroke-miterlimit:10;stroke-width:0.1px;}.bfe2b940-e283-449c-831d-d8e3a690e851{stroke:#acb3b8;}.e6a7e50a-c8e7-4596-95c9-eb5004dcd2f2{stroke:#c4ccd8;}.e61454b0-c6f7-4f68-b6b8-4b0668b55372,.e6a7e50a-c8e7-4596-95c9-eb5004dcd2f2{opacity:0;}.b5c8e83b-8db3-4199-a3fd-aae563ad6bc8,.e61454b0-c6f7-4f68-b6b8-4b0668b55372{fill:#c3ccd7;}.b5c8e83b-8db3-4199-a3fd-aae563ad6bc8{opacity:0.37;}.bd323759-65d8-440a-a5a0-2877baf5a5f8{fill:#0a4476;}.f47c6fa0-257f-4b29-80fc-5e8eb1dbaea0{fill:#c4ccd8;}</style></defs><rect class="bfe2b940-e283-449c-831d-d8e3a690e851" x="11.6" y="24.04" width="108" height="108.45" rx="2.5"/><rect class="e6a7e50a-c8e7-4596-95c9-eb5004dcd2f2" x="0.05" y="12.71" width="131.1" height="131.1"/><rect class="b5c8e83b-8db3-4199-a3fd-aae563ad6bc8" x="196.96" y="5.26" width="36" height="36" rx="2.5"/><rect class="bd323759-65d8-440a-a5a0-2877baf5a5f8" x="205.96" y="22.49" width="18" height="1.55" rx="0.78"/><rect class="bd323759-65d8-440a-a5a0-2877baf5a5f8" x="62.66" y="22.49" width="18" height="1.55" rx="0.78" transform="translate(238.23 -48.39) rotate(90)"/><rect class="b5c8e83b-8db3-4199-a3fd-aae563ad6bc8" x="199.66" y="69.73" width="36" height="36" rx="2.5"/><rect class="bd323759-65d8-440a-a5a0-2877baf5a5f8" x="208.66" y="86.96" width="18" height="1.55" rx="0.78"/><rect class="b5c8e83b-8db3-4199-a3fd-aae563ad6bc8" x="196.96" y="144.53" width="41.39" height="41.39" rx="2.5"/><rect class="bd323759-65d8-440a-a5a0-2877baf5a5f8" x="203.4" y="156.07" width="28.52" height="2.46" rx="1"/><rect class="bd323759-65d8-440a-a5a0-2877baf5a5f8" x="203.4" y="164" width="28.52" height="2.46" rx="1"/><rect class="bd323759-65d8-440a-a5a0-2877baf5a5f8" x="203.4" y="171.92" width="28.52" height="2.46" rx="1"/><rect class="bd323759-65d8-440a-a5a0-2877baf5a5f8" x="68.05" y="163.99" width="28.47" height="2.46" rx="1" transform="translate(390.82 82.93) rotate(90)"/><rect class="bd323759-65d8-440a-a5a0-2877baf5a5f8" x="60.12" y="163.99" width="28.47" height="2.46" rx="1" transform="translate(382.88 90.87) rotate(90)"/><rect class="bd323759-65d8-440a-a5a0-2877baf5a5f8" x="52.18" y="163.99" width="28.47" height="2.46" rx="1" transform="translate(374.95 98.8) rotate(90)"/><rect class="e61454b0-c6f7-4f68-b6b8-4b0668b55372" x="143.31" width="36" height="36" rx="2.5"/><rect class="bd323759-65d8-440a-a5a0-2877baf5a5f8" x="152.31" y="17.22" width="18" height="1.55" rx="0.78"/><rect class="bd323759-65d8-440a-a5a0-2877baf5a5f8" x="9" y="17.22" width="18" height="1.55" rx="0.78" transform="translate(179.31 0) rotate(90)"/><rect class="e61454b0-c6f7-4f68-b6b8-4b0668b55372" x="142.53" y="72.62" width="36" height="36" rx="2.5"/><rect class="bd323759-65d8-440a-a5a0-2877baf5a5f8" x="151.53" y="89.85" width="18" height="1.55" rx="0.78"/><rect class="e61454b0-c6f7-4f68-b6b8-4b0668b55372" x="136.02" y="139.21" width="41.39" height="41.39" rx="2.5"/><rect class="bd323759-65d8-440a-a5a0-2877baf5a5f8" x="142.46" y="150.76" width="28.52" height="2.46" rx="1"/><rect class="bd323759-65d8-440a-a5a0-2877baf5a5f8" x="142.46" y="158.68" width="28.52" height="2.46" rx="1"/><rect class="bd323759-65d8-440a-a5a0-2877baf5a5f8" x="142.46" y="166.6" width="28.52" height="2.46" rx="1"/><rect class="bd323759-65d8-440a-a5a0-2877baf5a5f8" x="7.11" y="158.68" width="28.47" height="2.46" rx="1" transform="translate(324.56 138.57) rotate(90)"/><rect class="bd323759-65d8-440a-a5a0-2877baf5a5f8" x="-0.83" y="158.68" width="28.47" height="2.46" rx="1" transform="translate(316.62 146.5) rotate(90)"/><rect class="bd323759-65d8-440a-a5a0-2877baf5a5f8" x="-8.76" y="158.68" width="28.47" height="2.46" rx="1" transform="translate(308.69 154.43) rotate(90)"/><rect class="b5c8e83b-8db3-4199-a3fd-aae563ad6bc8" x="140.61" y="211.38" width="41.39" height="41.39" rx="2.5"/><rect class="f47c6fa0-257f-4b29-80fc-5e8eb1dbaea0" x="147.05" y="222.93" width="28.52" height="2.46" rx="1"/><rect class="f47c6fa0-257f-4b29-80fc-5e8eb1dbaea0" x="147.05" y="230.85" width="28.52" height="2.46" rx="1"/><rect class="f47c6fa0-257f-4b29-80fc-5e8eb1dbaea0" x="147.05" y="238.77" width="28.52" height="2.46" rx="1"/><rect class="f47c6fa0-257f-4b29-80fc-5e8eb1dbaea0" x="11.7" y="230.85" width="28.47" height="2.46" rx="1" transform="translate(401.32 206.14) rotate(90)"/><rect class="f47c6fa0-257f-4b29-80fc-5e8eb1dbaea0" x="3.76" y="230.85" width="28.47" height="2.46" rx="1" transform="translate(393.38 214.08) rotate(90)"/><rect class="f47c6fa0-257f-4b29-80fc-5e8eb1dbaea0" x="-4.17" y="230.85" width="28.47" height="2.46" rx="1" transform="translate(385.45 222.01) rotate(90)"/></svg>
